<svg width="44" height="44" viewBox="0 0 44 44" fill="none" xmlns="http://www.w3.org/2000/svg">
<circle cx="21.718" cy="21.6691" r="21.4015" fill="white"/>
<path d="M17.438 20.9556C17.438 19.8204 17.8889 18.7317 18.6917 17.929C19.4944 17.1263 20.5831 16.6753 21.7183 16.6753C22.8535 16.6753 23.9422 17.1263 24.7449 17.929C25.5476 18.7317 25.9986 19.8204 25.9986 20.9556C25.9986 22.0908 25.5476 23.1795 24.7449 23.9822C23.9422 24.785 22.8535 25.2359 21.7183 25.2359C20.5831 25.2359 19.4944 24.785 18.6917 23.9822C17.8889 23.1795 17.438 22.0908 17.438 20.9556Z" fill="#1D4F7D"/>
<path fill-rule="evenodd" clip-rule="evenodd" d="M10.3441 19.266C10.5741 16.4217 11.8404 13.7697 13.8919 11.8362C15.9434 9.90276 18.6302 8.82905 21.4192 8.82812H22.0165C24.8054 8.82905 27.4922 9.90276 29.5437 11.8362C31.5952 13.7697 32.8615 16.4217 33.0915 19.266C33.3467 22.4417 32.3887 25.5949 30.4189 28.0626L23.7918 36.3569C23.5406 36.6715 23.2242 36.925 22.8655 37.0991C22.5068 37.2732 22.1148 37.3635 21.7178 37.3635C21.3208 37.3635 20.9288 37.2732 20.5701 37.0991C20.2114 36.925 19.895 36.6715 19.6438 36.3569L13.0181 28.0626C11.0478 25.5951 10.0893 22.4419 10.3441 19.266ZM21.7178 14.1341C19.976 14.1341 18.3055 14.8422 17.0738 16.1026C15.8421 17.363 15.1502 19.0725 15.1502 20.855C15.1502 22.6375 15.8421 24.3469 17.0738 25.6074C18.3055 26.8678 19.976 27.5759 21.7178 27.5759C23.4596 27.5759 25.1301 26.8678 26.3618 25.6074C27.5935 24.3469 28.2854 22.6375 28.2854 20.855C28.2854 19.0725 27.5935 17.363 26.3618 16.1026C25.1301 14.8422 23.4596 14.1341 21.7178 14.1341Z" fill="#1D4F7D"/>
</svg>
